<svg xmlns="http://www.w3.org/2000/svg" xmlns:xlink="http://www.w3.org/1999/xlink" x="0px" y="0px"
	 width="139.93px" height="150.34px" viewBox="0 0 139.93 150.34" enable-background="new 0 0 139.93 150.34" xml:space="preserve">
<g>
	<defs>
		<rect id="SVGID_1_" x="-71.67" y="-70.65" width="283.46" height="292.16"/>
	</defs>
	<clipPath id="SVGID_2_">
		<use xlink:href="#SVGID_1_"  overflow="visible"/>
	</clipPath>
	<path clip-path="url(#SVGID_2_)" fill="#000" d="M137.82,106.7c-0.67-1.89-1.46-3.72-2.21-5.42c-1.15-2.61-2.36-5.22-3.52-7.75
		l-0.09-0.2c-10.41-22.57-21.58-45.46-33.2-68.01l-0.49-0.96c-1.19-2.3-2.41-4.68-3.67-7.02c-1.47-2.73-3.09-5.63-5.4-8.32
		c-4.96-5.81-11.8-9-19.28-9c-7.48,0-14.32,3.2-19.28,9.01c-2.3,2.69-3.92,5.59-5.39,8.32c-1.27,2.36-2.51,4.77-3.7,7.09l-0.46,0.89
		C29.51,47.87,18.34,70.75,7.94,93.32l-0.15,0.33c-1.15,2.49-2.33,5.06-3.46,7.62c-0.75,1.7-1.53,3.53-2.21,5.42
		c-1.97,5.55-2.56,10.85-1.79,16.2c1.6,11.21,9.11,20.81,19.6,25.06c3.89,1.58,8.03,2.38,12.29,2.38c1.31,0,2.64-0.08,3.96-0.23
		c5.04-0.59,10.13-2.3,15.11-5.11c6.09-3.43,12.11-8.46,18.69-15.64c6.58,7.18,12.59,12.21,18.69,15.64
		c4.98,2.8,10.06,4.52,15.11,5.11c1.32,0.15,2.65,0.23,3.96,0.23c4.26,0,8.39-0.8,12.29-2.38c10.49-4.25,18-13.86,19.6-25.06
		C140.37,117.54,139.79,112.24,137.82,106.7 M69.97,114.53c-8.14-10.34-13.36-19.93-15.19-27.98c-0.77-3.38-0.95-6.48-0.52-9.23
		c0.37-2.37,1.18-4.49,2.42-6.31c2.81-4.1,7.78-6.54,13.3-6.54c5.51,0,10.49,2.45,13.29,6.55c1.24,1.81,2.06,3.93,2.42,6.31
		c0.42,2.75,0.25,5.85-0.52,9.23C83.33,94.6,78.1,104.19,69.97,114.53 M130.1,121.54c-1.12,7.84-6.37,14.55-13.71,17.52
		c-3.6,1.46-7.53,1.97-11.52,1.51c-3.83-0.44-7.59-1.73-11.51-3.94c-5.43-3.05-10.92-7.74-17.1-14.62
		c9.84-12.15,15.98-23.35,18.25-33.33c1.04-4.56,1.26-8.88,0.65-12.82c-0.59-3.81-1.93-7.27-3.99-10.28
		c-4.6-6.71-12.53-10.72-21.22-10.72c-8.68,0-16.61,4.01-21.21,10.72c-2.06,3.01-3.41,6.47-3.99,10.28
		c-0.61,3.95-0.39,8.26,0.65,12.82c2.27,9.98,8.42,21.18,18.26,33.34c-6.18,6.88-11.67,11.56-17.09,14.62
		c-3.92,2.21-7.68,3.49-11.51,3.94c-3.99,0.46-7.93-0.05-11.53-1.51c-7.33-2.97-12.58-9.69-13.7-17.52
		c-0.55-3.83-0.13-7.52,1.33-11.62c0.54-1.51,1.16-3,1.94-4.76c1.1-2.49,2.27-5.03,3.4-7.48l0.15-0.33
		c10.35-22.45,21.45-45.2,33.01-67.64l0.46-0.89c1.18-2.29,2.39-4.65,3.62-6.94c1.27-2.37,2.56-4.66,4.24-6.63
		c3.15-3.69,7.29-5.64,11.97-5.64c4.68,0,8.82,1.95,11.97,5.64c1.69,1.98,2.97,4.26,4.24,6.63c1.22,2.27,2.42,4.61,3.59,6.87
		l0.49,0.96c11.56,22.43,22.66,45.19,33.01,67.64l0.09,0.2c1.15,2.49,2.34,5.07,3.46,7.6c0.78,1.77,1.41,3.25,1.94,4.76
		C130.23,114.01,130.65,117.71,130.1,121.54"/>
</g>
</svg>