<?xml version="1.0" encoding="UTF-8" standalone="no"?>
<!DOCTYPE svg PUBLIC "-//W3C//DTD SVG 1.1//EN" "http://www.w3.org/Graphics/SVG/1.1/DTD/svg11.dtd">
<svg width="100%" height="100%" viewBox="0 0 24 24" version="1.1" xmlns="http://www.w3.org/2000/svg" xmlns:xlink="http://www.w3.org/1999/xlink" xml:space="preserve" xmlns:serif="http://www.serif.com/" style="fill-rule:evenodd;clip-rule:evenodd;stroke-linejoin:round;stroke-miterlimit:2;">
    <g transform="matrix(0.0744302,0,0,0.0744302,-17.6697,-9.68632)">
        <path d="M316.224,452.14L237.448,452.14L398.448,304.714L559.448,452.14L480.673,452.14L398.448,370.426L316.224,452.14Z" style="fill:rgb(26,26,26);"/>
    </g>
    <g transform="matrix(-4.55754e-18,-0.0744302,-0.0744302,4.55754e-18,33.6528,41.6398)">
        <path d="M316.224,452.14L237.448,452.14L398.448,303.533L559.448,452.14L480.673,452.14L398.448,370.426L316.224,452.14Z" style="fill:rgb(26,26,26);"/>
    </g>
    <g transform="matrix(-0.0744302,-1.82301e-17,1.82301e-17,-0.0744302,41.6398,33.6528)">
        <path d="M316.224,452.14L237.448,452.14L398.448,304.436L559.448,452.14L480.673,452.14L398.448,370.426L316.224,452.14Z" style="fill:rgb(26,26,26);"/>
    </g>
    <g transform="matrix(-1.36726e-17,0.0744302,0.0744302,1.36726e-17,-9.68272,-17.6733)">
        <path d="M316.224,452.14L237.448,452.14L398.448,304.225L559.448,452.14L480.673,452.14L398.448,370.426L316.224,452.14Z" style="fill:rgb(26,26,26);"/>
    </g>
</svg>
