<?xml version="1.0" encoding="UTF-8" standalone="no"?>
<!DOCTYPE svg PUBLIC "-//W3C//DTD SVG 1.1//EN" "http://www.w3.org/Graphics/SVG/1.1/DTD/svg11.dtd">
<svg width="100%" height="100%" viewBox="0 0 48 48" version="1.1" xmlns="http://www.w3.org/2000/svg" xmlns:xlink="http://www.w3.org/1999/xlink" xml:space="preserve" xmlns:serif="http://www.serif.com/" style="fill-rule:evenodd;clip-rule:evenodd;stroke-linejoin:round;stroke-miterlimit:2;">
    <g transform="matrix(0.149046,0,0,0.149068,-35.3835,-19.3997)">
        <path d="M316.224,452.14L237.448,452.14L398.448,297.562L559.448,452.14L480.673,452.14L398.448,370.426L316.224,452.14Z" style="fill:rgb(26,26,26);"/>
    </g>
    <g transform="matrix(-9.12643e-18,-0.149068,-0.149046,9.1278e-18,67.3896,83.396)">
        <path d="M316.224,452.14L237.448,452.14L398.448,297.438L559.448,452.14L480.673,452.14L398.448,370.426L316.224,452.14Z" style="fill:rgb(26,26,26);"/>
    </g>
    <g transform="matrix(-0.149046,-3.65112e-17,3.65057e-17,-0.149068,83.3835,67.3997)">
        <path d="M316.224,452.14L237.448,452.14L398.448,297.775L559.448,452.14L480.673,452.14L398.448,370.426L316.224,452.14Z" style="fill:rgb(26,26,26);"/>
    </g>
    <g transform="matrix(-2.73793e-17,0.149068,0.149046,2.73834e-17,-19.3896,-35.396)">
        <path d="M316.224,452.14L237.448,452.14L398.448,297.555L559.448,452.14L480.673,452.14L398.448,370.426L316.224,452.14Z" style="fill:rgb(26,26,26);"/>
    </g>
</svg>
