<svg xmlns="http://www.w3.org/2000/svg" width="501" height="132" fill="none"><path fill="#14aa8c" fill-rule="evenodd" d="M62.85 28.4c-16.2-.7-13.42-14.85-5.12-17.07 7.75-1.94 11.5 8.18 11.5 8.18 1.38-2.08 9.27-11.93 12.03-7.9 2.63 3.74 6.23 5.82 7.2 5.96C106.04.65 111.72-1.57 118.5.8c19.24 6.93 23.53 29.82 12.46 41.75-7.9 8.46-29.9 5-29.9 5l11.07 8.32c-7.06 10.12-23.53 6.93-23.53 6.93 14.26 30.52-7.2 54.8-7.2 54.8H60.5c0 .14 3.05-15.54-13.43-15.26-13.84 0-11.48 15.26-11.48 15.26h-21.6c-2.07-4.16-24.91-33.99-4.7-63.81 19.1-28.16 49.55-19.56 49.55-19.56zm17.86-5.14a4.29 4.29 0 0 1 3.03 7.34 4.29 4.29 0 1 1-6.06-6.08c.8-.8 1.9-1.26 3.03-1.26" clip-rule="evenodd"/><path fill="#14aa8c" d="M470.2 109.16a31.6 31.6 0 0 1-15.7-3.93q-6.9-4.05-11.07-10.82a30 30 0 0 1-4.05-15.35q0-8.45 4.05-15.11a29.3 29.3 0 0 1 11.06-10.7 30.7 30.7 0 0 1 15.59-4.05q8.8 0 15.7 4.04a29.3 29.3 0 0 1 11.06 10.71 28.5 28.5 0 0 1 4.05 15.1q0 8.46-4.05 15.36a30 30 0 0 1-11.06 10.82 31 31 0 0 1-15.58 3.93m-.12-14.52q4.39 0 7.73-1.9a13.4 13.4 0 0 0 5.23-5.47 17 17 0 0 0 1.9-8.1q0-4.5-1.9-7.96a13.6 13.6 0 0 0-5.23-5.36 14.6 14.6 0 0 0-7.73-2.02q-4.29 0-7.62 2.02a13.6 13.6 0 0 0-5.23 5.36 16 16 0 0 0-1.9 7.97q0 4.51 1.9 8.09a14.5 14.5 0 0 0 5.23 5.47 15 15 0 0 0 7.62 1.9"/><path fill="#14aa8c" fill-rule="evenodd" d="M336.6 49.2c5.88 0 10.11 1.34 14.71 4.04a29.3 29.3 0 0 1 11.07 10.7 28.5 28.5 0 0 1 4.04 15.11q0 8.46-4.04 15.35a30 30 0 0 1-11.07 10.83 27.3 27.3 0 0 1-14.58 3.92c-5.13 0-10.67-1.78-16.43-6.09V132h-15.46V50.5h15.58v5.34c2.99-2.86 9.49-6.65 16.19-6.65m-1 14.63q-4.28 0-7.6 2.02a13.6 13.6 0 0 0-5.24 5.35 16 16 0 0 0-1.9 7.97q0 4.52 1.9 8.1a14.5 14.5 0 0 0 5.23 5.47 15 15 0 0 0 7.62 1.9q4.4 0 7.73-1.9a13.4 13.4 0 0 0 5.24-5.48 17 17 0 0 0 1.9-8.09q0-4.52-1.9-7.97a13.6 13.6 0 0 0-5.24-5.35 14.6 14.6 0 0 0-7.73-2.02M404.59 49.2c5.87 0 10.1 1.34 14.7 4.04a29.3 29.3 0 0 1 11.07 10.7 28.5 28.5 0 0 1 4.04 15.11q0 8.46-4.04 15.35a30 30 0 0 1-11.07 10.83 27.3 27.3 0 0 1-14.58 3.92c-5.13 0-10.67-1.78-16.42-6.09V132h-15.47V50.5h15.58v5.34c3-2.86 9.49-6.65 16.19-6.65m-1 14.63q-4.3 0-7.61 2.02a13.6 13.6 0 0 0-5.24 5.35 16 16 0 0 0-1.9 7.97q0 4.52 1.9 8.1a14.5 14.5 0 0 0 5.24 5.47 15 15 0 0 0 7.6 1.9q4.41 0 7.74-1.9a13.4 13.4 0 0 0 5.24-5.48 17 17 0 0 0 1.9-8.09q0-4.52-1.9-7.97a13.6 13.6 0 0 0-5.24-5.35 14.6 14.6 0 0 0-7.73-2.02M263.13 49.2c8.86 0 13.3 4.78 16.2 7.67V50.5h15.47v57.46h-15.47v-7.29c-3.76 3.7-8.46 8.48-16.08 8.48s-10.02-1.31-14.7-3.93q-6.9-4.05-11.07-10.82a30 30 0 0 1-4.04-15.35q0-8.45 4.04-15.11a29.3 29.3 0 0 1 11.07-10.7c4.68-2.7 8.87-4.05 14.58-4.05m1 14.63q-4.28 0-7.61 2.02a13.6 13.6 0 0 0-5.24 5.36 16 16 0 0 0-1.9 7.97q0 4.51 1.9 8.09a14.5 14.5 0 0 0 5.24 5.47 15 15 0 0 0 7.61 1.9q4.4 0 7.74-1.9a13.4 13.4 0 0 0 5.23-5.47 17 17 0 0 0 1.9-8.1q0-4.5-1.9-7.96a13.6 13.6 0 0 0-5.23-5.36 14.6 14.6 0 0 0-7.74-2.02" clip-rule="evenodd"/><path fill="#14aa8c" d="M173.7 57.64H210v-33.3h16.18v83.63h-16.18V71.92H173.7v36.05h-16.18V24.33h16.18z"/></svg>