<svg width="100%" height="100%" viewBox="0 0 24 24" version="1.1" xmlns="http://www.w3.org/2000/svg" xmlns:xlink="http://www.w3.org/1999/xlink" xml:space="preserve" xmlns:serif="http://www.serif.com/" style="fill:currentColor;fill-rule:evenodd;clip-rule:evenodd;stroke-linejoin:round;stroke-miterlimit:2;">
    <g transform="matrix(4.55754e-18,-0.0744302,0.0744302,4.55754e-18,-9.68632,41.6398)">
        <path style="fill:currentColor;" d="M316.224,452.14L237.448,452.14L398.448,297.562L559.448,452.14L480.673,452.14L398.448,370.426L316.224,452.14Z"/>
    </g>
    <g transform="matrix(-0.0744302,0,-7.70372e-34,0.0744302,41.6398,-9.68272)">
        <path d="M316.224,452.14L237.448,452.14L398.448,297.438L559.448,452.14L480.673,452.14L398.448,370.426L316.224,452.14Z"/>
    </g>
    <g transform="matrix(-2.27877e-17,0.0744302,-0.0744302,-2.27877e-17,33.6528,-17.6697)">
        <path d="M316.224,452.14L237.448,452.14L398.448,297.775L559.448,452.14L480.673,452.14L398.448,370.426L316.224,452.14Z"/>
    </g>
    <g transform="matrix(0.0744302,1.82301e-17,1.82301e-17,-0.0744302,-17.6733,33.6528)">
        <path d="M316.224,452.14L237.448,452.14L398.448,297.555L559.448,452.14L480.673,452.14L398.448,370.426L316.224,452.14Z"/>
    </g>
</svg>
