<?xml version="1.0" encoding="UTF-8" standalone="no"?>
<!DOCTYPE svg PUBLIC "-//W3C//DTD SVG 1.1//EN" "http://www.w3.org/Graphics/SVG/1.1/DTD/svg11.dtd">
<svg width="100%" height="100%" viewBox="0 0 1163 1157" version="1.1" xmlns="http://www.w3.org/2000/svg" xmlns:xlink="http://www.w3.org/1999/xlink" xml:space="preserve" xmlns:serif="http://www.serif.com/" style="fill-rule:evenodd;clip-rule:evenodd;stroke-linecap:round;stroke-linejoin:round;stroke-miterlimit:1.5;">
    <g transform="matrix(1.09444,0,0,1.09444,282.077,437.654)">
        <circle cx="417.5" cy="273.5" r="71.94" style="fill:none;stroke:white;stroke-width:0.79px;"/>
    </g>
    <g transform="matrix(1.09444,0,0,1.09444,282.077,437.654)">
        <circle cx="417.5" cy="273.5" r="71.94" style="fill:none;stroke:white;stroke-width:0.79px;"/>
    </g>
    <g transform="matrix(1.09444,0,0,1.09444,282.077,120.677)">
        <circle cx="417.5" cy="273.5" r="71.94" style="fill:none;stroke:white;stroke-width:0.79px;"/>
    </g>
    <g transform="matrix(1.09444,0,0,1.09444,282.077,120.677)">
        <circle cx="417.5" cy="273.5" r="71.94" style="fill:none;stroke:white;stroke-width:0.79px;"/>
    </g>
    <g transform="matrix(1.09444,0,0,1.09444,-34.9227,120.677)">
        <circle cx="417.5" cy="273.5" r="71.94" style="fill:none;stroke:white;stroke-width:0.79px;"/>
    </g>
    <g transform="matrix(1.09444,0,0,1.09444,-34.9227,120.677)">
        <circle cx="417.5" cy="273.5" r="71.94" style="fill:none;stroke:white;stroke-width:0.79px;"/>
    </g>
    <g transform="matrix(2.13083,0,0,2.20305,-467.642,-24.0412)">
        <circle cx="417.5" cy="273.5" r="71.94" style="fill:none;stroke:white;stroke-width:0.4px;"/>
    </g>
    <g transform="matrix(2.13083,0,0,2.20305,-150.594,-24.0412)">
        <circle cx="417.5" cy="273.5" r="71.94" style="fill:none;stroke:white;stroke-width:0.4px;"/>
    </g>
    <g transform="matrix(1.30476e-16,2.13083,-2.20305,1.34898e-16,1183.04,-469.653)">
        <circle cx="417.5" cy="273.5" r="71.94" style="fill:none;stroke:white;stroke-width:0.4px;"/>
    </g>
    <g transform="matrix(1.30476e-16,2.13083,-2.20305,1.34898e-16,1183.04,-152.605)">
        <circle cx="417.5" cy="273.5" r="71.94" style="fill:none;stroke:white;stroke-width:0.4px;"/>
    </g>
    <g transform="matrix(1.09444,0,0,1.09444,-34.9227,437.654)">
        <circle cx="417.5" cy="273.5" r="71.94" style="fill:none;stroke:white;stroke-width:0.79px;"/>
    </g>
    <g transform="matrix(1.09444,0,0,1.09444,43.8113,357.888)">
        <circle cx="417.5" cy="273.5" r="71.94" style="fill:none;stroke:white;stroke-width:0.79px;"/>
    </g>
    <g transform="matrix(1.09444,0,0,1.09444,203.331,357.888)">
        <circle cx="417.5" cy="273.5" r="71.94" style="fill:none;stroke:white;stroke-width:0.79px;"/>
    </g>
    <g transform="matrix(1.09444,0,0,1.09444,203.331,200.431)">
        <circle cx="417.5" cy="273.5" r="71.94" style="fill:none;stroke:white;stroke-width:0.79px;"/>
    </g>
    <g transform="matrix(1.09444,0,0,1.09444,43.8113,200.431)">
        <circle cx="417.5" cy="273.5" r="71.94" style="fill:none;stroke:white;stroke-width:0.79px;"/>
    </g>
    <g transform="matrix(2.0104,0,0,2,4.50458,-285.53)">
        <path d="M576,432.012L0,432.012" style="fill:none;stroke:white;stroke-width:0.43px;"/>
    </g>
    <g transform="matrix(1.22465e-16,2,-2,1.22465e-16,1444.52,2.49388)">
        <path d="M576,432.012L0,432.012" style="fill:none;stroke:white;stroke-width:0.43px;"/>
    </g>
    <g transform="matrix(-1.54284,1.54284,-1.54284,-1.54284,1691.37,800.682)">
        <path d="M576,432.012L0,432.012" style="fill:none;stroke:white;stroke-width:0.4px;"/>
    </g>
    <g transform="matrix(1.54284,1.54284,-1.54284,1.54284,802.693,-532.373)">
        <path d="M576,432.012L0,432.012" style="fill:none;stroke:white;stroke-width:0.4px;"/>
    </g>
    <g transform="matrix(0.936101,0,0,0.936101,40.9372,171.297)">
        <path d="M745.718,265.027L407.079,265.027L407.079,603.666L745.718,603.666L745.718,265.027ZM408.005,265.953L408.005,602.74L744.792,602.74L744.792,265.953L408.005,265.953Z" style="fill:white;"/>
    </g>
    <g transform="matrix(4.00733,0,0,4.00733,-1046.23,262.049)">
        <path d="M366.387,157.933L366.387,0" style="fill:none;stroke:white;stroke-width:0.3px;"/>
    </g>
    <g transform="matrix(4.00733,0,0,4.00733,-729.229,262.049)">
        <path d="M366.387,157.933L366.387,0" style="fill:none;stroke:white;stroke-width:0.3px;"/>
    </g>
    <g transform="matrix(3.7579e-16,6.13712,-6.68488,4.09331e-16,1111.38,-1828.58)">
        <path d="M366.387,157.933L366.387,0" style="fill:none;stroke:white;stroke-width:0.19px;"/>
    </g>
    <g transform="matrix(3.7579e-16,6.13712,-6.68488,4.09331e-16,1111.38,-1512.17)">
        <path d="M366.387,157.933L366.387,0" style="fill:none;stroke:white;stroke-width:0.19px;"/>
    </g>
</svg>
